<svg width="3173" height="1533" viewBox="0 0 3173 1533" fill="none" xmlns="http://www.w3.org/2000/svg">
<path d="M390 538C390 442 272 443 272 443H152V626H272C272 626 390 626 390 538ZM543 529C543 622 493 675 432 700C559 743 554 867 554 867C554 1090 326 1100 272 1100H153V954H272C322 954 401 940 401 863C401 769 272 775 272 775H152H0V309C0 305 5 300 11 300H272C272 300 543 294 543 529Z" fill="white"/>
<path d="M1122 951C1129 951 1133 956 1133 961V1091C1133 1095 1129 1100 1122 1100H701C695 1100 690 1095 690 1091V951H843H1122ZM843 798H690V309C690 305 695 300 701 300H833C839 300 843 305 843 309V798Z" fill="white"/>
<path d="M1112.23 313.01C1109.23 307.01 1114.23 301.01 1121.23 301.011L1259.23 301.025C1262.23 301.025 1267.23 303.026 1268.23 307.026L1426.19 753.042L1582.23 307.058C1583.23 303.058 1588.23 301.059 1592.23 301.059L1729.23 301.073C1738.23 301.074 1742.23 307.074 1739.23 313.074L1436.15 1095.04C1433.15 1103.04 1419.15 1103.04 1416.15 1095.04L1112.23 313.01Z" fill="white"/>
<path d="M1352.22 502.059C1352.23 463.059 1384.23 432.063 1425.23 432.067C1464.23 432.071 1496.23 463.074 1496.22 502.074C1496.22 540.074 1464.22 573.071 1425.22 573.067C1384.22 573.063 1352.22 540.059 1352.22 502.059Z" fill="white"/>
<path d="M2488 1085C2494 1093 2489 1100 2479 1100H2307C2305 1100 2299 1098 2298 1097L2065 809C2045 830 1850 1051 1850 1051V309C1850 305 1855 300 1861 300H1993C1999 300 2003 305 2003 309V673L2304 303C2305 302 2311 300 2313 300H2476C2487 300 2492 308 2485 315L2167 707L2488 1085Z" fill="white"/>
<path d="M2980 953H3133V1091C3133 1095 3129 1100 3122 1100H2992C2793 1100 2523 1042 2523 700C2523 345 2796 300 2992 300H3122C3129 300 3133 309 3133 309V446H2980C2806 437 2677 510 2677 700C2677 947 2883 957 2980 953Z" fill="white"/>
</svg>
