<svg width="1571" height="505" viewBox="0 0 1571 505" fill="none" xmlns="http://www.w3.org/2000/svg">
<g filter="url(#filter0_i_9_11)">
<path d="M0.56836 136.5V130H130.068V136.5H0.56836ZM152.568 64.5H130.068C130.068 64.1666 130.068 63.8333 130.068 63.5C130.068 63.1667 130.068 62.8333 130.068 62.5C130.068 46.8333 126.068 33.6666 118.068 23C110.068 12 100.235 6.49998 88.5684 6.49998C76.9017 6.49998 67.0684 12 59.0684 23C51.0684 34 47.0684 47.6666 47.0684 64V380H24.5684V64C24.5684 51.6667 27.4017 40.8333 33.0684 31.5C38.735 21.8333 46.4017 14.1667 56.0684 8.49998C65.735 2.83331 76.5684 -2.5034e-05 88.5684 -2.5034e-05C100.902 -2.5034e-05 111.735 2.83331 121.068 8.49998C130.735 14.1667 138.402 21.8333 144.068 31.5C149.735 41.1666 152.568 52.1666 152.568 64.5ZM294.08 380H271.58V332.5V309.5V286.5V189.5C271.58 173.167 266.747 159.5 257.08 148.5C247.413 137.167 235.413 131.5 221.08 131.5C212.747 131.5 204.58 134 196.58 139C188.913 144 182.58 150.833 177.58 159.5C172.913 168.167 170.58 178.167 170.58 189.5C170.58 190.833 170.58 192.333 170.58 194C170.58 195.333 170.58 196.833 170.58 198.5H148.08C148.08 184.5 151.247 172 157.58 161C163.913 149.667 172.58 140.833 183.58 134.5C194.913 128.167 207.413 125 221.08 125C235.08 125 247.58 128.167 258.58 134.5C269.58 140.833 278.247 149.5 284.58 160.5C290.913 171.5 294.08 184 294.08 198V380ZM206.08 385C191.747 385 178.747 381.833 167.08 375.5C155.747 369.167 146.747 360.5 140.08 349.5C133.413 338.167 130.08 325.5 130.08 311.5C130.08 296.833 133.413 283.667 140.08 272C146.747 260.333 156.247 251.167 168.58 244.5C181.247 237.5 196.247 234 213.58 234H278.08V241H219.58C198.58 241 182.247 247.833 170.58 261.5C159.247 274.833 153.58 291.667 153.58 312C153.58 330.333 159.08 345.667 170.08 358C181.413 370.333 195.413 376.5 212.08 376.5C223.08 376.5 233.08 373.667 242.08 368C251.08 362 258.247 354 263.58 344C268.913 333.667 271.58 322.167 271.58 309.5H277.58C277.58 330.833 271.08 348.833 258.08 363.5C245.08 377.833 227.747 385 206.08 385ZM464.564 125C488.231 125 509.231 130.667 527.564 142C546.231 153 560.898 168.333 571.564 188C582.564 207.333 588.064 229.667 588.064 255C588.064 280.333 582.564 302.833 571.564 322.5C560.898 341.833 546.231 357.167 527.564 368.5C509.231 379.5 488.231 385 464.564 385C441.231 385 420.064 379.5 401.064 368.5C382.398 357.167 367.564 341.833 356.564 322.5C345.898 302.833 340.564 280.333 340.564 255C340.564 229.667 345.898 207.333 356.564 188C367.564 168.333 382.398 153 401.064 142C420.064 130.667 441.231 125 464.564 125ZM470.564 132.5C450.564 132.5 432.564 137.667 416.564 148C400.564 158.333 387.731 172.833 378.064 191.5C368.731 209.833 364.064 231 364.064 255C364.064 279 368.731 300.167 378.064 318.5C387.731 336.833 400.564 351.333 416.564 362C432.564 372.333 450.564 377.5 470.564 377.5C491.231 377.5 509.731 372.333 526.064 362C542.731 351.333 555.898 336.833 565.564 318.5C575.231 300.167 580.064 279 580.064 255C580.064 231 575.231 209.833 565.564 191.5C555.898 172.833 542.731 158.333 526.064 148C509.731 137.667 491.231 132.5 470.564 132.5ZM578.064 217.5V130H600.564V505H578.064V293L582.064 255L578.064 217.5ZM881.647 293H904.647C899.647 311.333 891.147 327.5 879.146 341.5C867.146 355.167 852.646 365.833 835.646 373.5C818.646 381.167 799.98 385 779.646 385C754.98 385 732.813 379.5 713.146 368.5C693.48 357.167 677.98 341.833 666.646 322.5C655.313 302.833 649.646 280.333 649.646 255C649.646 229.667 655.313 207.333 666.646 188C677.98 168.333 693.48 153 713.146 142C732.813 130.667 754.98 125 779.646 125C799.98 125 818.646 128.833 835.646 136.5C852.646 144.167 867.146 154.833 879.146 168.5C891.147 182.167 899.647 198.333 904.647 217H881.647C877.313 199.667 870.146 184.667 860.146 172C850.146 159.333 838.313 149.5 824.646 142.5C810.98 135.167 795.98 131.5 779.646 131.5C759.646 131.5 741.646 136.833 725.646 147.5C709.646 157.833 696.813 172.333 687.146 191C677.813 209.333 673.146 230.667 673.146 255C673.146 279 677.813 300.333 687.146 319C696.813 337.667 709.646 352.333 725.646 363C741.646 373.333 759.646 378.5 779.646 378.5C804.313 378.5 825.813 370.667 844.146 355C862.813 339.333 875.313 318.667 881.647 293ZM673.646 217V210.5H888.647V217H673.646ZM1174.62 293H1197.62C1192.62 311.333 1184.12 327.5 1172.12 341.5C1160.12 355.167 1145.62 365.833 1128.62 373.5C1111.62 381.167 1092.95 385 1072.62 385C1047.95 385 1025.78 379.5 1006.12 368.5C986.449 357.167 970.949 341.833 959.615 322.5C948.282 302.833 942.615 280.333 942.615 255C942.615 229.667 948.282 207.333 959.615 188C970.949 168.333 986.449 153 1006.12 142C1025.78 130.667 1047.95 125 1072.62 125C1092.95 125 1111.62 128.833 1128.62 136.5C1145.62 144.167 1160.12 154.833 1172.12 168.5C1184.12 182.167 1192.62 198.333 1197.62 217H1174.62C1170.28 199.667 1163.12 184.667 1153.12 172C1143.12 159.333 1131.28 149.5 1117.62 142.5C1103.95 135.167 1088.95 131.5 1072.62 131.5C1052.62 131.5 1034.62 136.833 1018.62 147.5C1002.62 157.833 989.782 172.333 980.115 191C970.782 209.333 966.115 230.667 966.115 255C966.115 279 970.782 300.333 980.115 319C989.782 337.667 1002.62 352.333 1018.62 363C1034.62 373.333 1052.62 378.5 1072.62 378.5C1097.28 378.5 1118.78 370.667 1137.12 355C1155.78 339.333 1168.28 318.667 1174.62 293ZM966.615 217V210.5H1181.62V217H966.615ZM1246.58 130H1269.08V380H1246.58V130ZM1384.58 189.5H1362.08C1362.08 173.5 1357.58 160 1348.58 149C1339.58 138 1328.58 132.5 1315.58 132.5C1302.92 132.5 1291.92 138 1282.58 149C1273.58 159.667 1269.08 173 1269.08 189V200.5H1262.58C1262.58 198.5 1262.58 196.667 1262.58 195C1262.58 193 1262.58 191 1262.58 189C1263.25 170.667 1269.25 155.5 1280.58 143.5C1291.92 131.167 1306.25 125 1323.58 125C1341.25 125 1355.75 131.167 1367.08 143.5C1378.75 155.5 1384.58 170.833 1384.58 189.5ZM1570.45 380H1547.95V332.5V309.5V286.5V189.5C1547.95 173.167 1543.11 159.5 1533.45 148.5C1523.78 137.167 1511.78 131.5 1497.45 131.5C1489.11 131.5 1480.95 134 1472.95 139C1465.28 144 1458.95 150.833 1453.95 159.5C1449.28 168.167 1446.95 178.167 1446.95 189.5C1446.95 190.833 1446.95 192.333 1446.95 194C1446.95 195.333 1446.95 196.833 1446.95 198.5H1424.45C1424.45 184.5 1427.61 172 1433.95 161C1440.28 149.667 1448.95 140.833 1459.95 134.5C1471.28 128.167 1483.78 125 1497.45 125C1511.45 125 1523.95 128.167 1534.95 134.5C1545.95 140.833 1554.61 149.5 1560.95 160.5C1567.28 171.5 1570.45 184 1570.45 198V380ZM1482.45 385C1468.11 385 1455.11 381.833 1443.45 375.5C1432.11 369.167 1423.11 360.5 1416.45 349.5C1409.78 338.167 1406.45 325.5 1406.45 311.5C1406.45 296.833 1409.78 283.667 1416.45 272C1423.11 260.333 1432.61 251.167 1444.95 244.5C1457.61 237.5 1472.61 234 1489.95 234H1554.45V241H1495.95C1474.95 241 1458.61 247.833 1446.95 261.5C1435.61 274.833 1429.95 291.667 1429.95 312C1429.95 330.333 1435.45 345.667 1446.45 358C1457.78 370.333 1471.78 376.5 1488.45 376.5C1499.45 376.5 1509.45 373.667 1518.45 368C1527.45 362 1534.61 354 1539.95 344C1545.28 333.667 1547.95 322.167 1547.95 309.5H1553.95C1553.95 330.833 1547.45 348.833 1534.45 363.5C1521.45 377.833 1504.11 385 1482.45 385Z" fill="black"/>
</g>
<defs>
<filter id="filter0_i_9_11" x="0.568359" y="0" width="1569.88" height="521" filterUnits="userSpaceOnUse" color-interpolation-filters="sRGB">
<feFlood flood-opacity="0" result="BackgroundImageFix"/>
<feBlend mode="normal" in="SourceGraphic" in2="BackgroundImageFix" result="shape"/>
<feColorMatrix in="SourceAlpha" type="matrix" values="0 0 0 0 0 0 0 0 0 0 0 0 0 0 0 0 0 0 127 0" result="hardAlpha"/>
<feMorphology radius="4" operator="dilate" in="SourceAlpha" result="effect1_innerShadow_9_11"/>
<feOffset dy="16"/>
<feGaussianBlur stdDeviation="16"/>
<feComposite in2="hardAlpha" operator="arithmetic" k2="-1" k3="1"/>
<feColorMatrix type="matrix" values="0 0 0 0 0.0470588 0 0 0 0 0.0470588 0 0 0 0 0.0509804 0 0 0 0.1 0"/>
<feBlend mode="normal" in2="shape" result="effect1_innerShadow_9_11"/>
</filter>
</defs>
</svg>
